<?xml version="1.0" encoding="UTF-8"?>
<svg id="Layer_2" data-name="Layer 2" xmlns="http://www.w3.org/2000/svg" xmlns:xlink="http://www.w3.org/1999/xlink" viewBox="0 0 309.18 172.43">
  <defs>
    <style>
      .cls-1 {
        fill: url(#linear-gradient);
        stroke: #231f20;
        stroke-miterlimit: 10;
      }
    </style>
    <linearGradient id="linear-gradient" x1="24.61" y1="108.43" x2="276.67" y2="38.31" gradientUnits="userSpaceOnUse">
      <stop offset="0" stop-color="#8e53a1"/>
      <stop offset=".15" stop-color="#8856a3" stop-opacity=".9"/>
      <stop offset=".43" stop-color="#7b5fa9" stop-opacity=".63"/>
      <stop offset=".83" stop-color="#666eb4" stop-opacity=".2"/>
      <stop offset="1" stop-color="#5d75b9" stop-opacity="0"/>
    </linearGradient>
  </defs>
  <g id="Layer_1-2" data-name="Layer 1">
    <path id="_ааа" data-name="ааа" class="cls-1" d="m70.01,13.81C64.43,2.68,21.85,1.85,6.01,24.81c-13.77,19.96-.08,56.82,23,70,31.34,17.89,74.31-11.11,86-19C160.39,45.18,163.32,6.59,181.01,7.81c25.43,1.75,61.49,84.42,30,130-35.93,52.01-149.04,40.2-170-6C20.13,85.78,90.51,5.15,114.01,12.81c17.89,5.83-.1,59.99,31,82,26.88,19.03,79.76,6.47,98-23,18.43-29.78-4.44-67.19,4-71,12.35-5.57,79.79,66.16,57,102-15.15,23.82-67.25,27.22-90,6-16.78-15.66-7.01-43.96-29-58-2.32-1.48-11.11-7.1-22-6-14.84,1.49-16.81,13.77-28.71,15.36-17.76,2.38-24.45-23.46-46.29-24.36-17.96-.74-31.13,16-34,13-3.55-3.72,21.07-24.87,16-35Z"/>
  </g>
</svg>